HIERARCHY
ROOT Hips
{
  OFFSET 2.26061 22.2878 23.7974
  CHANNELS 6 Xposition Yposition Zposition Zrotation Xrotation Yrotation
  JOINT LeftUpLeg
  {
    OFFSET 8.64259 1.95398 -2.38835
    CHANNELS 3 Zrotation Xrotation Yrotation
    JOINT LeftLeg
    {
      OFFSET 43.7702 0 0
      CHANNELS 3 Zrotation Xrotation Yrotation
      JOINT LeftFoot
      {
        OFFSET 40.6238 0 0
        CHANNELS 3 Zrotation Xrotation Yrotation
        JOINT LeftToeBase
        {
          OFFSET 12.7242 0 0
          CHANNELS 3 Zrotation Xrotation Yrotation
          End Site
          {
            OFFSET 0 0 0
          }
        }
      }
    }
  }
  JOINT RightUpLeg
  {
    OFFSET -8.2249 1.95398 -2.59336
    CHANNELS 3 Zrotation Xrotation Yrotation
    JOINT RightLeg
    {
      OFFSET 43.5653 0 0
      CHANNELS 3 Zrotation Xrotation Yrotation
      JOINT RightFoot
      {
        OFFSET 40.6238 0 0
        CHANNELS 3 Zrotation Xrotation Yrotation
        JOINT RightToeBase
        {
          OFFSET 12.7242 0 0
          CHANNELS 3 Zrotation Xrotation Yrotation
          End Site
          {
            OFFSET 0 0 0
          }
        }
      }
    }
  }
  JOINT Spine
  {
    OFFSET 0.165834 0.87714 6.61349
    CHANNELS 3 Zrotation Xrotation Yrotation
    JOINT Spine1
    {
      OFFSET 7.38963 1.71661e-005 0
      CHANNELS 3 Zrotation Xrotation Yrotation
      JOINT Spine2
      {
        OFFSET 11.9445 1.14441e-005 0
        CHANNELS 3 Zrotation Xrotation Yrotation
        JOINT Spine3
        {
          OFFSET 14.7254 4.19617e-005 0
          CHANNELS 3 Zrotation Xrotation Yrotation
          JOINT Spine4
          {
            OFFSET 10.9679 0 0
            CHANNELS 3 Zrotation Xrotation Yrotation
            JOINT RightShoulder
            {
              OFFSET 2.46616 -1.6653 3.69651
              CHANNELS 3 Zrotation Xrotation Yrotation
              JOINT RightArm
              {
                OFFSET 13.0012 0 0
                CHANNELS 3 Zrotation Xrotation Yrotation
                JOINT RightForeArm
                {
                  OFFSET 28.7848 1.52588e-005 0
                  CHANNELS 3 Zrotation Xrotation Yrotation
                  JOINT RightHand
                  {
                    OFFSET 26.5688 1.52588e-005 0
                    CHANNELS 3 Zrotation Xrotation Yrotation
                    End Site
                    {
                      OFFSET 0 0 0
                    }
                  }
                }
              }
            }
            JOINT LeftShoulder
            {
              OFFSET 2.38034 -1.29275 -3.7523
              CHANNELS 3 Zrotation Xrotation Yrotation
              JOINT LeftArm
              {
                OFFSET 16.3182 6.10351e-005 0
                CHANNELS 3 Zrotation Xrotation Yrotation
                JOINT LeftForeArm
                {
                  OFFSET 27.0901 0 0
                  CHANNELS 3 Zrotation Xrotation Yrotation
                  JOINT LeftHand
                  {
                    OFFSET 24.5451 1.52588e-005 0
                    CHANNELS 3 Zrotation Xrotation Yrotation
                    End Site
                    {
                      OFFSET 0 0 0
                    }
                  }
                }
              }
            }
            JOINT Neck
            {
              OFFSET 5.0226 -0.0266342 0
              CHANNELS 3 Zrotation Xrotation Yrotation
              JOINT Head
              {
                OFFSET 6.69363 2.86102e-005 0
                CHANNELS 3 Zrotation Xrotation Yrotation
                End Site
                {
                  OFFSET 0 0 0
                }
              }
            }
          }
        }
      }
    }
  }
}
MOTION
Frames:	15
Frame Time:	0.0416667
68.5072 96.386 -3.72912 91.3725 -42.7799 88.192 -172.725 14.1275 86.9713 -19.6766 12.0602 -2.13092 57.4523 -0.557913 5.43372 34.4465 4.59463 -6.0358 177.695 12.8006 87.4084 -58.2321 -0.284552 -5.42127 55.2683 -0.570975 -0.194355 41.0527 0.374727 -5.7439 0.458213 7.33917 -89.5805 12.1921 1.10937 0.713169 0.521478 1.13968 0.663647 -22.0146 0.843725 1.0136 -2.00191 0.843761 1.01361 91.5771 -52.8593 -97.8369 12.8828 -10.3769 -8.93339 -10.7635 -21.7958 -59.1274 -10.6134 -0.906942 2.79317 -103.224 -51.1062 59.8267 -22.4151 11.7275 16.7057 2.05038 5.72411 -35.6056 12.5422 0.805581 2.50246 7.43612 -1.67191 3.07123 4.03925 -2.30646 -1.76423 
59.2024 94.265 -8.75821 90.5591 -43.2527 86.7766 -172.952 22.5988 86.938 -22.0334 9.93674 -1.93348 57.3761 -0.272453 2.09022 26.6152 -1.88655 1.27814 177.174 4.47202 85.6596 -56.8322 -8.52676 -7.60381 51.8731 1.19675 1.12353 42.6912 0.482536 -3.71289 0.860935 7.25281 -89.4317 12.3608 1.98069 0.909725 0.691156 2.0188 0.821637 -21.8502 1.61573 1.46301 -1.83751 1.61572 1.46301 90.9296 -52.2746 -98.9187 11.2108 -6.93712 -14.861 -15.5186 -21.0058 -64.6892 -11.6828 -1.03341 3.41002 -102.898 -50.8692 60.1922 -24.1689 11.5083 19.6877 0.711302 7.28514 -27.8702 11.6987 0.951142 4.05548 8.14168 -3.18283 2.02045 3.83232 -3.55746 -1.01065 
48.6164 93.3065 -14.9671 89.5738 -45.1602 88.5386 -173.946 26.4956 90.4372 -14.4303 8.17432 -0.570846 58.4004 0.713406 1.8165 38.1489 7.5753 6.84607 177.188 -0.0906473 88.6641 -42.933 -12.8929 -8.60667 58.7346 -0.711361 -0.221349 53.1666 1.14521 -0.362637 1.19939 7.25455 -89.8103 12.3706 2.47335 0.0942232 0.702061 2.47511 -0.0148016 -21.8507 2.33063 0.833619 -1.83805 2.33063 0.833623 89.2629 -49.2774 -102.124 12.8865 -3.99714 -17.9606 -17.0946 -20.7901 -64.327 -11.083 -1.09758 4.23784 -104.165 -53.0303 59.2909 -23.1964 9.47457 19.5555 -0.159826 5.88977 -22.6959 11.966 1.06639 4.80671 6.83453 -2.59748 4.95995 4.51851 -3.57551 -2.31073 
37.5786 93.7192 -21.5571 90.4829 -43.4734 91.6941 -173.236 24.4708 92.5464 -7.25066 5.39158 -0.43206 61.5981 4.29022 3.94233 40.8673 10.0677 8.116 175.049 -0.787777 92.3841 -35.3583 -6.66412 -3.90872 70.9374 -4.76463 -2.44966 45.7168 0.657033 -2.69604 0.990029 7.42903 -90.2281 12.0201 1.86074 -0.656625 0.350257 1.83005 -0.737916 -22.1955 1.97202 -0.0668376 -2.18281 1.97204 -0.0668293 90.4632 -48.6597 -100.421 13.6338 -6.21597 -18.4179 -13.711 -21.7085 -60.8748 -10.6529 -1.02813 3.85715 -105.95 -54.1696 57.3099 -21.8007 9.87381 18.588 -0.0344383 5.01293 -25.8183 12.5047 1.01247 4.05179 6.41998 -1.84584 6.80955 5.24271 -3.17282 -2.64859 
28.9079 95.7484 -26.2431 92.0992 -39.8175 90.9597 -172.304 21.6692 90.5437 -22.2651 6.38209 -1.07376 55.5235 -0.462442 0.938512 40.5181 9.68897 7.16201 175.265 3.98732 92.9078 -32.9833 -2.18862 -2.85137 69.9857 -3.86238 -1.98466 38.8212 0.398824 -4.08736 0.511966 7.47458 -90.0624 11.9262 0.988638 -0.23087 0.255544 0.977531 -0.27417 -22.2824 1.0123 0.0769506 -2.26979 1.01232 0.0769585 90.1281 -51.2661 -100.338 13.8153 -9.40444 -8.83355 -12.7784 -24.9956 -56.6103 -9.65391 -0.984957 3.78092 -106.287 -53.8172 56.7053 -20.1716 11.3735 15.4164 -0.126065 4.95946 -29.8377 16.0915 1.13373 3.17049 4.79784 -2.13647 5.70187 5.42785 -3.17561 -2.37869 
21.8187 97.4678 -30.8073 93.4718 -37.5475 90.1265 -171.24 15.6742 89.5161 -40.7228 8.4724 -1.22376 54.7091 -1.06063 1.58004 37.9911 7.54355 9.85408 175.106 7.56104 91.9432 -30.9005 -1.99166 -2.67108 64.8453 -1.80706 -0.940853 35.9506 0.36419 -3.45327 0.200076 7.42091 -89.904 12.0318 0.443134 0.143037 0.360955 0.448989 0.123394 -22.1746 0.37963 0.269604 -2.16196 0.379654 0.269606 91.6554 -53.372 -97.6235 15.5406 -11.1607 1.90525 -11.4862 -31.1065 -49.3746 -4.7926 -0.808541 4.04453 -105.482 -52.8704 57.4075 -17.864 11.5884 11.9364 1.8955 5.02769 -38.1719 18.0352 1.15813 2.55896 3.37414 -2.36679 5.05977 5.15992 -3.21073 -2.01912 
15.0404 96.6274 -35.9059 92.2672 -36.1121 90.0815 -171.262 8.60152 91.283 -49.777 15.0114 -0.117895 50.8486 -4.34028 -1.3575 39.8873 9.2561 9.04292 174.719 13.3487 92.4902 -30.3026 -0.142424 -0.933168 65.3997 -2.148 -1.14585 31.5651 0.207269 -1.615 -0.243094 7.17877 -90.0619 12.5163 -0.512417 -0.0644476 0.845476 -0.514748 -0.0418335 -21.6903 -0.469368 -0.215467 -1.67769 -0.469368 -0.21548 91.4286 -53.1505 -98.0015 17.9303 -8.97342 11.4838 -10.4108 -35.4446 -42.6206 0.618497 -0.619493 5.71735 -103.984 -52.5309 59.3378 -15.3696 9.21291 9.49231 7.61246 5.79503 -49.9862 17.1525 1.11276 2.6148 4.42247 -1.57866 5.10174 3.04907 -2.42534 -1.63486 
7.12593 94.2182 -42.0202 90.6672 -34.9217 89.6021 -172.593 0.983026 92.6813 -47.3061 26.128 1.48943 48.9402 -6.53369 -1.57702 46.5734 15.2261 8.49903 175.218 22.6439 93.2994 -33.6273 1.75894 -0.370674 65.6341 -2.3718 -1.30499 29.1857 0.113949 -1.39386 -0.72891 7.09391 -90.1117 12.6864 -1.50111 -0.0469779 1.01631 -1.50171 0.0191439 -21.5251 -1.41757 -0.496034 -1.51247 -1.41758 -0.496043 92.1739 -54.2759 -96.6958 17.6858 -4.91757 16.6153 -10.0327 -35.1289 -37.5389 -0.138558 -0.734915 8.8362 -103.396 -51.7124 59.8295 -11.1682 6.53706 5.86274 8.91752 3.98547 -56.545 16.7527 1.11764 2.79391 7.04883 -0.623299 3.16439 1.40105 -1.15335 0.125178 
-2.69285 93.277 -50.1286 89.9216 -32.5246 88.8066 -174.041 -1.5337 90.1155 -39.1858 28.2116 2.76865 60.4083 2.19603 1.69771 48.5648 16.6313 6.53637 174.88 26.9183 91.6291 -23.3296 1.63099 0.190896 56.8884 0.265511 0.380933 18.6763 -0.29691 -0.95442 -1.08574 7.28632 -90.0035 12.3044 -2.15943 0.235714 0.635228 -2.14698 0.330566 -21.914 -2.13039 -0.42449 -1.90136 -2.1304 -0.424489 92.9388 -55.6747 -95.3493 17.0815 -3.53511 16.913 -7.93104 -30.9653 -35.6365 -0.337248 -0.650452 8.73457 -103.831 -50.2864 58.6309 -7.83748 4.62989 -0.12631 7.4152 3.48873 -54.2589 17.1303 1.20069 3.13156 7.68905 -0.995443 0.0152338 2.08065 -0.887227 1.67032 
-12.8876 94.0399 -58.8198 90.5925 -35.7414 86.9812 -172.95 0.375444 86.1339 -30.7186 21.2866 -0.742949 66.9464 7.94544 6.94401 45.1906 13.3117 3.65427 174.882 24.3198 88.827 -6.40978 -10.2736 -1.31535 44.079 4.38875 4.15625 39.4658 0.328131 -7.08741 -0.842029 7.53129 -89.664 11.8173 -1.51652 0.831179 0.146899 -1.47846 0.897123 -22.3948 -1.6962 0.336876 -2.3822 -1.69619 0.336873 92.6268 -55.5531 -95.819 17.1173 -4.5948 13.2629 -8.4869 -29.3782 -38.7227 0.162357 -0.564791 6.67671 -104.253 -49.8735 57.8574 -7.80488 5.47718 -0.983921 6.32643 3.77498 -51.0971 16.8637 1.29289 3.7802 6.3945 -1.02287 -0.185565 3.88869 -0.924048 0.704239 
-20.4303 96.1263 -65.7763 92.0251 -38.9352 89.2354 -173.234 3.53363 85.7361 -26.0954 17.8341 -1.06496 64.7483 5.18223 5.51674 40.7054 9.53942 2.78714 177.245 20.9248 88.3709 -19.3056 -10.217 -4.31611 54.1438 0.528358 0.552148 43.2728 0.180551 -8.81402 -0.410791 7.51328 -89.8758 11.8486 -0.758392 0.329208 0.177832 -0.743178 0.362261 -22.3591 -0.822271 0.0860472 -2.34648 -0.82229 0.0860277 92.6453 -55.5948 -95.7851 15.277 -6.75572 8.31494 -7.11108 -27.3946 -42.4036 -2.08184 -0.65033 5.32876 -105.483 -51.4269 56.7941 -12.0863 9.37901 3.43672 3.92725 5.08276 -43.4202 19.0804 1.40259 3.50094 5.19445 -0.602368 0.847173 3.26062 -0.668982 0.917482 
-27.5061 97.7227 -70.9651 93.0532 -39.3868 90.5863 -173.141 5.81697 86.6602 -20.1654 16.2579 -1.35505 60.7066 1.38333 2.62489 36.5538 6.1261 2.24488 176.626 17.2816 87.0547 -40.7556 0.341082 -4.42568 58.7913 -1.46666 -0.802109 41.619 0.287495 -7.17523 -0.206374 7.3527 -89.9342 12.1685 -0.378984 0.173579 0.497652 -0.37099 0.190085 -22.0381 -0.41363 0.0516499 -2.02547 -0.413644 0.0516456 92.4944 -55.1774 -96.0726 14.6725 -8.34863 2.31499 -8.21125 -25.4267 -47.4537 -5.43328 -0.751978 3.82847 -104.578 -51.0279 57.8886 -19.5845 12.6575 9.08441 1.42533 7.57177 -32.1968 13.2143 0.973506 3.33946 5.331 -0.78787 0.652007 1.53913 -0.820974 1.13983 
-35.0635 96.9374 -75.6659 92.9383 -40.0702 89.9839 -172.821 10.8049 86.3501 -19.0531 13.7817 -2.20483 62.4973 2.88105 2.52167 29.4652 0.201048 3.6045 176.374 11.0873 85.8727 -53.9903 -2.5347 -5.44542 56.663 -0.889284 -0.453004 42.4629 0.378305 -5.56482 0.238507 7.16939 -89.7756 12.5338 0.580654 0.379662 0.862921 0.596801 0.353731 -21.6722 0.439701 0.536621 -1.6596 0.439696 0.536623 92.5481 -53.7411 -96.2397 14.528 -8.81052 -3.68543 -10.69 -23.1476 -53.7291 -7.65372 -0.82842 3.31318 -103.437 -50.7363 59.3756 -23.8924 13.7603 15.372 1.84332 11.9887 -27.5374 5.82363 0.518019 4.13171 6.7007 -2.19381 1.21116 -0.726823 -2.36074 0.114065 
-44.1799 94.9079 -80.6975 92.1927 -41.1866 88.5413 -172.506 19.8277 86.1844 -22.2265 13.2236 -2.72107 59.6276 1.2935 3.1302 31.4059 1.74188 5.01377 177.511 4.00052 86.4933 -55.8087 -16.082 -8.08882 50.5387 2.10654 1.81508 46.2321 0.224326 -7.3422 0.747318 7.12939 -89.4933 12.6093 1.72627 0.810726 0.939309 1.76027 0.733939 -21.6004 1.40281 1.2921 -1.58774 1.40282 1.2921 91.6727 -52.9459 -97.6785 13.0747 -6.96522 -9.94897 -14.0682 -23.5746 -57.8595 -5.22807 -0.775622 4.18333 -102.12 -50.0806 60.9863 -25.4557 11.3245 21.0149 1.22686 8.84313 -26.3631 8.44022 0.670055 3.65372 7.92943 -3.66921 0.585801 -1.67229 -3.72336 -0.565586 
-54.2188 93.8244 -87.0196 92.1627 -43.7703 90.1 -173.637 23.9115 88.6251 -15.772 9.53614 -1.32126 56.7006 -0.700787 2.29578 41.9469 10.9432 7.03563 176.865 -0.0765356 89.3071 -44.7846 -15.6993 -7.70663 58.913 -0.747314 -0.250961 54.2584 0.86312 -2.42154 1.16982 7.19975 -89.7293 12.4795 2.45292 0.254201 0.810941 2.46172 0.145927 -21.741 2.26306 0.980026 -1.72833 2.26305 0.980019 90.791 -50.4034 -99.5225 12.1459 -6.38121 -14.5381 -14.4676 -23.5391 -59.2733 -9.12921 -1.00787 4.42402 -102.724 -51.576 60.7203 -25.2181 9.40095 22.3392 0.433174 5.36466 -25.3693 10.3915 0.822924 3.79958 5.84586 -3.52025 2.91899 -0.335727 -3.99802 -1.67773 
